<?xml version="1.0" encoding="UTF-8"?><svg id="Layer_1" xmlns="http://www.w3.org/2000/svg" width="5.7in" height=".84in" viewBox="0 0 410.36 60.27"><path d="M205.89,19.47c-.58,1.47-1.23,2.91-1.87,4.18-1.62,3.23-2.98,5.23-4.09,6.49,1.11,1.25,2.48,3.25,4.09,6.48,.63,1.27,1.28,2.71,1.87,4.19,.58-1.48,1.23-2.92,1.87-4.19,1.61-3.23,2.98-5.24,4.09-6.48-1.11-1.25-2.48-3.26-4.09-6.49-.64-1.27-1.28-2.71-1.87-4.18" fill="#4a2f2a"/><path d="M398.55,30.13l-133.6-2.66-19.69,2.65c-6-.18-15.09-4.5-15.09-7.25,0,2.73-8.9,6.98-14.9,7.25-2.8-.27-9.37-13.47-9.37-18.92,0,5.44-6.58,18.64-9.38,18.92-6-.27-14.89-4.53-14.89-7.25,0,2.76-9.09,7.07-15.09,7.25l-19.69-2.65L13.23,30.13l133.6,2.65,19.69-2.65c6,.18,15.09,4.5,15.09,7.25,0-2.72,8.9-6.98,14.9-7.25,2.81,.28,9.37,13.47,9.37,18.92,0-5.44,6.56-18.63,9.37-18.92,6,.26,14.9,4.53,14.9,7.25,0-2.75,9.09-7.07,15.09-7.25l19.69,2.65,133.6-2.65Zm-190.79,6.48c-.64,1.27-1.28,2.71-1.87,4.18-.58-1.48-1.23-2.92-1.86-4.18-1.62-3.23-2.99-5.24-4.1-6.48,1.11-1.25,2.48-3.26,4.1-6.49,.63-1.27,1.28-2.71,1.86-4.18,.59,1.47,1.23,2.91,1.87,4.18,1.62,3.23,2.98,5.23,4.09,6.49-1.11,1.25-2.47,3.25-4.09,6.48" fill="#4a2f2a"/></svg>