<?xml version="1.0" encoding="UTF-8"?><svg id="Layer_1" xmlns="http://www.w3.org/2000/svg" width="4in" height="4in" viewBox="0 0 288 288"><path d="M100.47,125.7c0-11.99,0-18.85-.31-24.77-.16-4.52-3.74-5.14-12.3-5.45l.16-1.87c3.27,0,11.99,.62,19.47,.62,5.3,0,15.11-.62,19.78-.62v1.87c-8.1,0-10.59,1.4-11.06,5.45-.47,4.21-.62,12.62-.62,22.58v16.51l28.34-8.68,29.12,8.68v-17.29c0-11.84-.15-18.07-.47-22.58-.31-3.43-3.89-4.52-11.99-4.67l.16-1.87c6.39,.16,14.95,.62,19.32,.62,6.85,0,17.6-.47,20.56-.62v1.87c-8.57,.16-11.68,1.25-11.84,5.45-.15,5.61-.62,13.24-.62,23.68v34.42c0,14.17,.31,23.52,.78,28.35,.31,3.74,3.27,4.67,11.68,5.14l-.31,1.87c-4.36-.16-13.55-.47-20.25-.47s-15.27,.16-19.47,.47v-1.87c8.25-.31,11.37-1.71,11.84-5.45,.16-3.58,.62-9.5,.62-26.17v-17.45l-28.96-9.15-28.5,9.15v16.98c0,12.93,.16,21.81,.62,26.64,.31,4.21,3.74,4.98,12.46,5.45v1.87c-4.83-.16-13.39-.47-21.65-.47-6.54,0-15.58,.31-19.63,.47v-1.87c8.57-.16,11.99-1.56,12.3-5.3,.31-3.9,.78-10.44,.78-26.95v-34.58Z" fill="#eee6d8"/><path d="M265.92,76.34c-15.99,0-29-13.01-29-29v-8.89H51.08v8.89c0,15.99-13.01,29-29,29H13.19V211.7h8.89c15.99,0,29,12.99,29,28.97v8.89H236.92v-8.89c0-15.97,13.01-28.97,29-28.97h8.89V76.34h-8.89Zm4.84,131.3h-4.84c-18.23,0-33.06,14.81-33.06,33.02v4.84H55.13v-4.84c0-18.21-14.83-33.02-33.06-33.02h-4.84V80.39h4.84c18.23,0,33.06-14.83,33.06-33.06v-4.84H232.86v4.84c0,18.23,14.83,33.06,33.06,33.06h4.84v127.25Z" fill="#eee6d8"/><path d="M62.43,56.18c-3.42,15.71-15.8,28.09-31.51,31.51l-5.4,1.18v110.26l5.4,1.18c15.71,3.42,28.07,15.8,31.51,31.49l1.18,5.4H224.36l1.2-5.4c3.44-15.69,15.8-28.07,31.51-31.49l5.4-1.18V88.88l-5.4-1.18c-15.71-3.42-28.11-15.8-31.51-31.51l-1.2-5.4H63.62l-1.18,5.4Zm154.56,1.85c4.56,17.73,20.48,31.69,38.23,36.26v99.43c-17.72,4.57-33.64,18.53-38.22,36.24H71c-4.59-17.73-20.52-31.68-38.22-36.24V94.3c17.74-4.58,33.66-18.53,38.23-36.26H217Z" fill="#eee6d8"/></svg>