<?xml version="1.0" encoding="UTF-8"?><svg id="Layer_1" xmlns="http://www.w3.org/2000/svg" width="10in" height="7.27in" viewBox="0 0 720 523.73"><path d="M327.6,87.97c0-8.93,0-14.03-.23-18.44-.12-3.36-2.78-3.83-9.16-4.06l.12-1.39c2.43,0,8.93,.46,14.49,.46,3.94,0,11.25-.46,14.73-.46v1.39c-6.03,0-7.88,1.04-8.23,4.06-.35,3.13-.46,9.39-.46,16.81v12.29l21.1-6.46,21.68,6.46v-12.87c0-8.81-.11-13.45-.35-16.81-.23-2.55-2.9-3.36-8.93-3.48l.12-1.39c4.76,.12,11.13,.46,14.38,.46,5.1,0,13.1-.35,15.31-.46v1.39c-6.38,.12-8.7,.93-8.81,4.06-.11,4.17-.46,9.86-.46,17.63v25.63c0,10.55,.23,17.51,.58,21.1,.23,2.78,2.44,3.48,8.7,3.83l-.23,1.39c-3.25-.12-10.09-.35-15.07-.35s-11.37,.12-14.5,.35v-1.39c6.15-.23,8.47-1.28,8.81-4.06,.12-2.67,.46-7.07,.46-19.48v-12.99l-21.56-6.81-21.21,6.81v12.64c0,9.62,.12,16.24,.46,19.83,.23,3.13,2.78,3.71,9.28,4.06v1.39c-3.59-.12-9.97-.35-16.12-.35-4.87,0-11.6,.23-14.61,.35v-1.39c6.38-.12,8.93-1.16,9.16-3.94,.23-2.9,.58-7.77,.58-20.06v-25.74Z" fill="#eee6d8"/><path d="M450.77,51.22c-11.91,0-21.59-9.69-21.59-21.59v-6.62h-138.36v6.62c0,11.91-9.69,21.59-21.59,21.59h-6.62v100.77h6.62c11.91,0,21.59,9.67,21.59,21.57v6.62h138.36v-6.62c0-11.89,9.69-21.57,21.59-21.57h6.62V51.22h-6.62Zm3.6,97.75h-3.6c-13.57,0-24.61,11.03-24.61,24.59v3.6h-132.32v-3.6c0-13.56-11.04-24.59-24.61-24.59h-3.6V54.24h3.6c13.57,0,24.61-11.04,24.61-24.61v-3.6h132.32v3.6c0,13.57,11.04,24.61,24.61,24.61h3.6v94.73Z" fill="#eee6d8"/><path d="M299.27,36.22c-2.55,11.7-11.76,20.91-23.46,23.46l-4.02,.88v82.09l4.02,.88c11.7,2.55,20.9,11.76,23.46,23.45l.88,4.02h119.67l.9-4.02c2.56-11.68,11.76-20.9,23.46-23.45l4.02-.88V60.56l-4.02-.88c-11.7-2.55-20.92-11.76-23.46-23.46l-.9-4.02h-119.67l-.88,4.02Zm115.07,1.38c3.39,13.2,15.25,23.59,28.46,27v74.02c-13.19,3.4-25.05,13.8-28.46,26.98h-108.7c-3.42-13.2-15.28-23.58-28.46-26.98V64.59c13.2-3.41,25.06-13.8,28.46-27h108.69Z" fill="#eee6d8"/><g><g><path d="M286.12,464.54c.58-1.8,1.74-5.8,1.94-6.71,1.1-.26,3.8-1.03,4.9-1.55l.13,.19c-1.16,3.42-3.29,10.45-4.58,14.83,3.03-4.39,7.67-9.8,13.28-9.8,4.06,0,5.61,3.03,5.61,6.77,0,7.35-4.77,17.28-11.73,20.63-1.94,.97-3.68,1.35-5.74,1.35-2.51,0-4.96-.97-5.99-2.97-1.74,5.61-3.35,11.99-3.87,14.05-.39,1.74,0,2,.97,2.06l3.61,.39-.19,.77h-5.22c-3.03,0-6.9,.13-9.86,.52l.32-.84,2.78-.45c1.29-.26,1.93-.84,2.25-1.81,2.32-6.32,7.54-23.66,10.7-34.56-1.35,1.1-4.06,2.71-5.16,2.97-.19-.32-.32-.52-.45-.71,2.51-1.35,4.84-3.16,6.32-5.16Zm13.28-1.22c-2.77,0-6.06,3.35-8.96,7.61-2.64,3.68-5.09,10.57-5.09,13.73,0,3.48,2,4.51,4.19,4.51,2.32,0,4.32-1.1,6.64-4,3.35-4.26,6.25-12.25,6.25-17.34,0-2.19-.71-4.51-2.97-4.51h-.06Z" fill="#eee6d8"/><path d="M338.35,482.79c-1.74,3.61-5.16,7.48-9.28,7.48-3.61,0-3.03-3.35-2.25-6.06,.26-.84,.45-1.61,.9-3.22-3.48,5.35-8.44,9.28-13.28,9.28-4.45,0-5.03-2.45-3.81-6.58,1.61-5.74,5.55-17.67,5.93-18.89,.19-.65,.06-.97-.78-.97l-3.48,.07,.45-.77c3.35-.39,7.03-.65,9.86-1.61-1.55,2.45-5.8,15.67-7.54,22.82-.51,2.19-.45,3.93,1.61,3.93,5.29,0,10.38-7.09,12.38-12.64,1.35-3.74,2.84-8.38,3.55-10.9,.19-.58,.07-.9-.71-.9l-3.61,.07,.39-.77c3.09-.26,6.9-.65,9.87-1.61-2.26,5.61-6.06,17.09-7.67,24.31-.39,1.68-.26,2.45,.65,2.45,1.87,0,4.77-2.97,6.25-6.25l.58,.77Z" fill="#eee6d8"/><path d="M362.41,478.4c.26,0,.39,.71,.39,1.35-.06,5.03-4,8.19-5.99,9.54-1.16,.71-2.9,1.35-4.19,1.35-2.39,0-4.97-.9-7.29-1.55-1.49-.52-2.77-.84-4.06-.84-.9,0-1.8,.26-2.97,1.35l-.45-.52c.71-1.1,2.45-3.16,3.16-3.74,2.9-2.64,13.99-12.7,20.12-19.41-8.06,.06-11.74,.19-13.09,.51-1.61,.32-2.84,2.06-4.7,5.8l-.52-.52c2.19-4.84,3.93-8.96,4.26-10.45,.58,.58,1.35,.77,2.39,.84,1.55,.26,4.58,.26,9.93,.26,3.09,0,5.09-.19,5.99-.65l.19,.39c-.45,.9-1.81,3.03-3.42,4.64-4.26,4.71-13.22,12.64-18.76,18.12,.97-.07,2.97,.26,4.96,.65,2.39,.64,5.48,1.29,6.97,1.29,4.13,0,5.61-2.19,5.67-4.64,0-.52-.06-.9-.13-1.29-.06-.51-.13-.71,.13-1.03,.39-.64,.97-1.48,1.35-1.48h.06Z" fill="#eee6d8"/><path d="M386.99,478.4c.26,0,.39,.71,.39,1.35-.06,5.03-4,8.19-5.99,9.54-1.16,.71-2.9,1.35-4.19,1.35-2.39,0-4.97-.9-7.29-1.55-1.49-.52-2.77-.84-4.06-.84-.9,0-1.8,.26-2.97,1.35l-.45-.52c.71-1.1,2.45-3.16,3.16-3.74,2.9-2.64,13.99-12.7,20.12-19.41-8.06,.06-11.74,.19-13.09,.51-1.61,.32-2.84,2.06-4.7,5.8l-.52-.52c2.19-4.84,3.93-8.96,4.26-10.45,.58,.58,1.35,.77,2.39,.84,1.55,.26,4.58,.26,9.93,.26,3.09,0,5.09-.19,5.99-.65l.19,.39c-.45,.9-1.81,3.03-3.42,4.64-4.26,4.71-13.22,12.64-18.76,18.12,.97-.07,2.97,.26,4.96,.65,2.39,.64,5.48,1.29,6.97,1.29,4.13,0,5.61-2.19,5.67-4.64,0-.52-.06-.9-.13-1.29-.06-.51-.13-.71,.13-1.03,.39-.64,.97-1.48,1.35-1.48h.06Z" fill="#eee6d8"/><path d="M397.63,445.65c3.68,0,7.61-.45,9.99-.97-1.42,3.22-3.87,11.15-6.9,21.6-3.03,10.25-4.7,15.93-5.48,19.47-.39,1.74-.32,2.45,.65,2.45,1.8,0,4.84-2.71,6.45-6.06l.58,.71c-2.19,4.38-6,7.41-9.67,7.41-3.87,0-3.16-3.61-2.45-6.06,1.68-5.48,3.23-10.38,5.42-17.86,3.35-11.15,4.39-14.89,5.35-18.96,.13-.71-.13-.9-.9-.9l-3.29-.06,.26-.77Z" fill="#eee6d8"/><path d="M426.26,482.4c-2.9,4.77-7.93,7.87-13.41,7.87-5.09,0-7.61-3.16-7.61-8.38,0-5.93,2.9-13.09,8.06-17.34,2.45-2,5.48-3.03,8.32-3.03,5.22,0,6.45,3.16,6.45,6.06s-2.64,4.45-4.71,5.35c-3.22,1.68-8.83,3.03-12.44,3.61-.32,1.48-.65,3.74-.65,5.42,0,3.87,1.35,6.64,4.96,6.64,4.84,0,8.45-3.29,10.51-8.51h.39l.13,2.32Zm-5.29-19.92c-2.58,0-6.83,2.32-9.73,12.83,2.9-.39,6.7-1.35,8.7-2.19,2.71-1.29,4-3.87,4-6.58s-1.16-4.06-2.9-4.06h-.06Z" fill="#eee6d8"/><path d="M450.64,462.03c-1.29,2.71-2.45,6.19-3.29,9.41l-.78,.13c1.29-5.8-.32-9.16-4.45-9.16-2.84,0-4.96,2.19-4.96,5.22,0,1.74,.58,2.77,1.74,3.8,1.29,1.22,3.8,3.29,5.42,4.58,2,1.48,2.9,2.84,2.9,5.54-.06,2.71-1.42,4.84-2.9,6.13-1.8,1.55-4.39,2.58-7.74,2.58-2.96,0-6.51-.97-8.44-2.32,.77-1.61,2-5.16,2.96-8.83l.78-.19c-.32,.97-.71,3.29-.78,4.58-.13,3.87,2.26,5.87,6.13,5.87,2.9,0,5.87-1.48,5.93-5.29,0-1.48-.39-2.58-1.55-3.61-1.23-1.22-3.42-3.09-5.16-4.64-1.94-1.42-3.09-3.09-3.09-5.74s1.03-4.77,3.03-6.51c1.74-1.48,3.74-2.06,6.25-2.06,2.9,0,5.16,1.29,5.87,2.39l1.68-2.45,.45,.58Z" fill="#eee6d8"/></g><g><g><path d="M23.2,268.4c0-9.41,0-14.79-.24-19.44-.12-3.55-2.94-4.03-9.66-4.28l.12-1.47c2.57,0,9.41,.49,15.28,.49,4.16,0,11.86-.49,15.53-.49v1.47c-6.36,0-8.31,1.1-8.68,4.28-.37,3.3-.49,9.9-.49,17.73v12.96c3.18,.12,9.78,.12,16.75,.12s13.69,0,18.83-.12v-13.57c0-9.29-.12-14.18-.37-17.73-.24-2.69-3.06-3.55-9.41-3.67l.12-1.47c5.01,.12,11.74,.49,15.16,.49,5.38,0,13.82-.37,16.14-.49v1.47c-6.72,.12-9.17,.98-9.29,4.28-.12,4.4-.49,10.39-.49,18.58v27.02c0,11.13,.24,18.46,.61,22.25,.24,2.94,2.57,3.67,9.17,4.04l-.24,1.47c-3.42-.12-10.64-.37-15.89-.37s-11.98,.12-15.28,.37v-1.47c6.48-.24,8.93-1.35,9.29-4.28,.12-2.81,.49-7.46,.49-20.54v-13.69c-4.65-.12-11.62-.24-18.71-.24s-13.69,.12-16.87,.24v13.33c0,10.15,.12,17.12,.49,20.91,.24,3.3,2.94,3.91,9.78,4.28v1.47c-3.79-.12-10.52-.37-16.99-.37-5.14,0-12.23,.24-15.4,.37v-1.47c6.72-.12,9.41-1.22,9.66-4.16,.24-3.06,.61-8.19,.61-21.15v-27.14Z" fill="#eee6d8"/><path d="M126.39,270.48c3.67,0,8.93-.12,12.35-.37,3.55-.24,5.87-.61,7.09-.73-.24,3.55-.49,9.78-.49,17.61v14.67c0,8.07,.12,13.08,.49,16.14,.37,2.2,.98,2.57,7.46,2.44l-.37,1.47c-2.69,.12-5.75,.37-9.54,.73-3.67,.24-6.97,.73-9.17,1.1,.12-3.3-.12-8.8,.12-11.74-3.42,4.65-11.49,11.62-21.4,11.62-6.85,0-10.15-2.81-11.25-5.01-.86-1.59-1.34-4.03-1.34-6.72,0-7.09,.37-18.58,.37-28.61,0-5.26-.12-7.7-.24-9.41-.24-1.83-1.47-1.96-6.85-1.96l.24-1.35c3.79,0,7.58-.12,11-.37,3.3-.37,6.11-.61,7.7-.86-.61,3.3-1.1,11.62-1.1,25.55,0,11.62,.12,16.99,.73,20.17,.61,2.81,2.45,4.52,5.75,4.52,7.33,0,12.84-4.77,15.4-10.88,.98-2.45,1.1-4.4,1.1-6.85v-14.92c0-6.72-.12-10.39-.37-12.84-.24-1.71-1.71-1.83-7.58-1.96l-.12-1.47Z" fill="#eee6d8"/><path d="M156.94,320.85c5.38-.24,6.6-.49,6.72-3.55,.24-3.79,.49-7.09,.49-14.06v-13.69c0-6.85-.12-11.98-.37-15.16-.12-1.71-.86-1.96-6.48-1.96l.12-1.35c5.5,0,11.74-.61,17.12-1.83,.24,2.81,.49,7.21,.61,9.41,4.28-4.4,10.27-9.78,18.71-9.78,7.7,0,11.74,3.67,13.33,6.85,.98,1.96,1.47,4.16,1.47,6.85v34.84c0,2.57,.73,2.81,6.85,3.42l-.24,1.47c-3.3,0-7.82-.37-12.47-.37-5.26,0-9.54,.37-11.86,.37l.12-1.47c4.77-.24,5.99-.98,6.11-3.18,.24-2.81,.61-7.95,.61-19.44,0-16.99-.12-18.34-1.22-20.3-1.35-3.06-3.91-4.65-7.95-4.65-5.75,0-9.9,2.94-12.35,7.58-.98,1.83-1.22,3.06-1.22,5.62v17.12c0,5.99,.12,11.25,.37,14.06,.24,2.32,1.1,2.93,6.72,3.18l-.37,1.47c-2.69,0-8.56-.37-12.59-.37-4.89,0-9.17,.37-12.23,.37v-1.47Z" fill="#eee6d8"/><path d="M253.53,270.48l-.37,1.83-15.65,.73c-.12,4.16-.37,10.39-.37,20.05-.12,11.61,0,18.22,.49,22.01,.49,3.79,2.69,5.26,5.62,5.26,5.87,0,9.05-5.01,10.27-11.37h.61l1.1,2.94c-2.57,7.46-8.8,11.49-16.63,11.49-5.14,0-8.8-1.59-10.76-4.16-1.22-1.71-1.83-3.79-1.83-7.46-.12-9.05,.37-27.51,.37-38.76l-7.95-.73,.61-1.83h7.58v-14.18c4.64-1.47,9.05-3.67,11-5.14l.61,.12c-.24,3.55-.61,13.33-.61,19.2h15.89Z" fill="#eee6d8"/><path d="M256.34,238.69c6.48,0,13.69-.86,18.46-1.59-.24,5.13-.61,13.81-.61,27.63v29.95c0,14.18,.12,19.81,.24,22.62,.24,2.93,1.35,3.3,6.97,3.55l-.24,1.47c-3.42,0-8.8-.37-12.84-.37-5.5,0-10.03,.37-12.35,.37v-1.47c5.5-.12,6.48-.86,6.72-3.79,.12-2.32,.61-12.1,.61-23.96v-30.57c0-13.57-.12-17.12-.24-20.17-.24-1.96-.98-2.32-6.97-2.32l.24-1.35Z" fill="#eee6d8"/><path d="M310.98,323.42c-9.17,0-15.28-2.94-19.19-8.44-2.94-4.03-4.77-10.76-4.77-17.73,0-15.16,8.07-28.37,24.94-28.37s20.17,14.31,20.17,19.68c0,2.2-.61,4.16-1.83,4.77-1.83,.73-7.7,1.22-16.87,1.35h-14.43c-.37,7.21,1.35,13.82,3.55,17.85,2.69,4.65,6.48,7.09,12.47,7.09,8.93,0,12.84-4.77,15.77-12.59l1.34,.73c-3.18,10.39-10.39,15.65-21.15,15.65Zm.37-52.69c-7.95,0-11.62,10.15-12.23,22.01h9.66c5.26,0,8.68-.37,10.52-.73,1.59-.49,2.45-1.83,2.45-4.52,0-6.11-1.83-16.75-10.27-16.75h-.12Z" fill="#eee6d8"/><path d="M335.06,270.11c3.3,.12,7.7,.37,11.86,.37,4.65,0,9.9-.24,12.35-.37l.37,1.47-3.3,.49c-2.32,.24-2.57,.73-1.96,2.81,3.54,10.64,11.25,29.59,13.69,35.94,3.55-10.15,8.44-26.53,10.64-34.72,.73-3.06-.24-3.67-3.3-4.03l-4.28-.49,.37-1.47c2.2,0,6.36,.37,9.17,.37,3.18,0,7.09-.37,9.9-.37l-.37,1.47c-5.14,.24-6.11,.98-8.44,6.48-3.42,8.8-13.94,39-19.2,54.65-4.03,12.47-7.46,20.05-14.79,20.05-4.77,0-7.21-3.42-7.21-6.85s2.45-5.5,4.89-5.5c1.83,0,2.93,1.22,3.3,2.45,.86,2.45,1.47,3.79,3.42,3.79,3.67,0,7.7-12.96,10.64-21.89-1.1-.86-2.45-3.06-3.18-5.13-6.36-16.63-13.82-36.43-17.24-43.4-1.59-3.3-2.44-3.91-4.64-4.28l-2.94-.37,.24-1.47Z" fill="#eee6d8"/></g><g><path d="M421.24,268.4c0-9.41,0-14.79-.24-19.44-.12-3.55-2.93-4.03-9.66-4.28l.12-1.47c2.57,0,9.41,.49,15.28,.49,4.16,0,11.86-.49,15.53-.49v1.47c-6.36,0-8.31,1.1-8.68,4.28-.37,3.3-.49,9.9-.49,17.73v12.96c3.18,.12,9.78,.12,16.75,.12s13.69,0,18.83-.12v-13.57c0-9.29-.12-14.18-.37-17.73-.24-2.69-3.06-3.55-9.41-3.67l.12-1.47c5.01,.12,11.74,.49,15.16,.49,5.38,0,13.81-.37,16.14-.49v1.47c-6.72,.12-9.17,.98-9.29,4.28-.12,4.4-.49,10.39-.49,18.58v27.02c0,11.13,.24,18.46,.61,22.25,.24,2.94,2.57,3.67,9.17,4.04l-.24,1.47c-3.42-.12-10.64-.37-15.89-.37s-11.98,.12-15.28,.37v-1.47c6.48-.24,8.93-1.35,9.29-4.28,.12-2.81,.49-7.46,.49-20.54v-13.69c-4.64-.12-11.61-.24-18.71-.24s-13.69,.12-16.87,.24v13.33c0,10.15,.12,17.12,.49,20.91,.24,3.3,2.93,3.91,9.78,4.28v1.47c-3.79-.12-10.51-.37-16.99-.37-5.13,0-12.23,.24-15.4,.37v-1.47c6.72-.12,9.41-1.22,9.66-4.16,.24-3.06,.61-8.19,.61-21.15v-27.14Z" fill="#eee6d8"/><path d="M521.12,268.89c15.89,0,25.31,10.88,25.31,26.65,0,17.48-10.27,27.88-26.16,27.88-16.99,0-25.8-11.37-25.8-26.78s9.29-27.75,26.53-27.75h.12Zm-.73,1.83c-4.89,0-8.19,2.45-10.39,6.48-2.2,4.03-3.3,10.52-3.3,17.85s1.22,14.43,3.18,18.83c2.44,5.01,6.48,7.7,11.49,7.7,4.65,0,7.95-2.08,10.27-6.97,1.47-3.67,2.69-10.03,2.69-17.97s-1.22-14.79-3.18-18.71c-2.2-4.4-5.5-7.21-10.64-7.21h-.12Z" fill="#eee6d8"/><path d="M585.18,270.48c3.67,0,8.93-.12,12.35-.37,3.55-.24,5.87-.61,7.09-.73-.24,3.55-.49,9.78-.49,17.61v14.67c0,8.07,.12,13.08,.49,16.14,.37,2.2,.98,2.57,7.46,2.44l-.37,1.47c-2.69,.12-5.75,.37-9.54,.73-3.67,.24-6.97,.73-9.17,1.1,.12-3.3-.12-8.8,.12-11.74-3.42,4.65-11.49,11.62-21.4,11.62-6.85,0-10.15-2.81-11.25-5.01-.86-1.59-1.34-4.03-1.34-6.72,0-7.09,.37-18.58,.37-28.61,0-5.26-.12-7.7-.24-9.41-.24-1.83-1.47-1.96-6.85-1.96l.24-1.35c3.79,0,7.58-.12,11-.37,3.3-.37,6.11-.61,7.7-.86-.61,3.3-1.1,11.62-1.1,25.55,0,11.62,.12,16.99,.73,20.17,.61,2.81,2.45,4.52,5.75,4.52,7.33,0,12.84-4.77,15.4-10.88,.98-2.45,1.1-4.4,1.1-6.85v-14.92c0-6.72-.12-10.39-.37-12.84-.24-1.71-1.71-1.83-7.58-1.96l-.12-1.47Z" fill="#eee6d8"/><path d="M649.73,287.1c-.24-9.17-5.26-16.38-13.45-16.38-5.75,0-9.66,3.55-9.66,9.29,0,3.55,1.71,5.99,4.77,7.58,3.42,1.71,11,4.77,15.28,6.72,5.26,2.57,7.95,6.48,7.95,11.98,0,12.1-9.9,17.12-20.54,17.12-5.74,0-11.86-1.83-15.65-3.3,.12-2.94,.24-10.88-.12-17.36l1.34-.49c.24,2.57,.73,5.87,2.32,9.78,2.2,5.99,7.46,9.41,13.45,9.41,7.7,0,10.88-3.91,10.88-9.66,0-3.06-1.47-5.75-4.77-7.21-3.55-1.83-8.68-4.28-12.72-5.99-6.48-2.81-9.66-7.21-9.66-13.45,0-10.15,7.7-16.26,17.97-16.26,4.65,0,10.15,1.59,12.1,3.67l1.35-4.65,1.1,.49c-.73,6.97-.73,13.57-.61,18.09l-1.35,.61Z" fill="#eee6d8"/><path d="M685.91,323.42c-9.17,0-15.28-2.94-19.19-8.44-2.94-4.03-4.77-10.76-4.77-17.73,0-15.16,8.07-28.37,24.94-28.37s20.17,14.31,20.17,19.68c0,2.2-.61,4.16-1.83,4.77-1.83,.73-7.7,1.22-16.87,1.35h-14.43c-.37,7.21,1.35,13.82,3.55,17.85,2.69,4.65,6.48,7.09,12.47,7.09,8.93,0,12.84-4.77,15.77-12.59l1.34,.73c-3.18,10.39-10.39,15.65-21.15,15.65Zm.37-52.69c-7.95,0-11.62,10.15-12.23,22.01h9.66c5.26,0,8.68-.37,10.52-.73,1.59-.49,2.45-1.83,2.45-4.52,0-6.11-1.83-16.75-10.27-16.75h-.12Z" fill="#eee6d8"/></g></g><g><path d="M360,390.59c-.54,1.37-1.14,2.7-1.73,3.88-1.5,3-2.77,4.86-3.8,6.02,1.03,1.16,2.3,3.02,3.8,6.02,.59,1.18,1.19,2.51,1.73,3.89,.54-1.37,1.14-2.71,1.73-3.89,1.5-3,2.77-4.86,3.8-6.02-1.03-1.16-2.3-3.02-3.8-6.02-.59-1.18-1.19-2.51-1.73-3.88Z" fill="#eee6d8"/><path d="M538.9,400.49l-124.06-2.47-18.29,2.46c-5.57-.17-14.01-4.18-14.01-6.74,0,2.53-8.27,6.48-13.84,6.73-2.6-.25-8.7-12.51-8.7-17.56,0,5.05-6.11,17.31-8.71,17.56-5.58-.25-13.83-4.2-13.83-6.73,0,2.56-8.44,6.57-14.01,6.74l-18.29-2.46-124.06,2.47,124.06,2.46,18.28-2.46c5.57,.16,14.02,4.18,14.02,6.73,0-2.53,8.27-6.48,13.83-6.73,2.61,.26,8.7,12.51,8.7,17.56,0-5.05,6.1-17.3,8.7-17.56,5.57,.24,13.84,4.2,13.84,6.73,0-2.55,8.45-6.57,14.02-6.73l18.28,2.46,124.06-2.46Zm-177.16,6.02c-.59,1.18-1.19,2.51-1.73,3.89-.54-1.37-1.14-2.71-1.73-3.89-1.5-3-2.77-4.86-3.8-6.02,1.03-1.16,2.3-3.02,3.8-6.02,.59-1.18,1.19-2.51,1.73-3.88,.54,1.37,1.14,2.7,1.73,3.88,1.5,3,2.77,4.86,3.8,6.02-1.03,1.16-2.3,3.02-3.8,6.02Z" fill="#eee6d8"/></g></g></svg>