<?xml version="1.0" encoding="UTF-8"?><svg id="Layer_1" xmlns="http://www.w3.org/2000/svg" width="10in" height="8in" viewBox="0 0 720 576"><g><g><path d="M86.73,350.92c0-14.41,0-22.64-.37-29.75-.19-5.43-4.49-6.17-14.78-6.55l.19-2.25c3.93,0,14.41,.75,23.39,.75,6.36,0,18.15-.75,23.77-.75v2.25c-9.73,0-12.73,1.68-13.29,6.55-.56,5.05-.75,15.16-.75,27.13v19.84c4.86,.19,14.97,.19,25.64,.19s20.96,0,28.82-.19v-20.77c0-14.22-.19-21.71-.56-27.13-.37-4.12-4.68-5.43-14.41-5.61l.19-2.25c7.67,.19,17.96,.75,23.2,.75,8.23,0,21.15-.56,24.7-.75v2.25c-10.29,.19-14.03,1.5-14.22,6.55-.19,6.74-.75,15.91-.75,28.44v41.35c0,17.03,.37,28.26,.94,34.06,.37,4.49,3.93,5.61,14.03,6.18l-.37,2.25c-5.24-.19-16.28-.56-24.33-.56s-18.34,.19-23.39,.56v-2.25c9.92-.37,13.66-2.06,14.22-6.55,.19-4.3,.75-11.42,.75-31.44v-20.96c-7.11-.19-17.78-.37-28.63-.37s-20.96,.19-25.82,.37v20.4c0,15.53,.19,26.2,.75,32,.37,5.05,4.49,5.99,14.97,6.55v2.25c-5.8-.19-16.09-.56-26.01-.56-7.86,0-18.71,.37-23.58,.56v-2.25c10.29-.19,14.41-1.87,14.78-6.36,.37-4.68,.93-12.54,.93-32.37v-41.54Z" fill="#eee6d8"/><path d="M244.65,354.1c5.61,0,13.66-.19,18.9-.56,5.43-.37,8.98-.93,10.85-1.12-.37,5.43-.75,14.97-.75,26.94v22.45c0,12.35,.19,20.02,.75,24.7,.56,3.37,1.5,3.93,11.41,3.74l-.56,2.25c-4.12,.19-8.8,.56-14.6,1.12-5.61,.37-10.67,1.12-14.03,1.68,.19-5.05-.19-13.47,.19-17.96-5.24,7.11-17.59,17.78-32.75,17.78-10.48,0-15.53-4.3-17.22-7.67-1.31-2.43-2.06-6.17-2.06-10.29,0-10.85,.56-28.44,.56-43.79,0-8.05-.19-11.79-.37-14.41-.37-2.81-2.25-2.99-10.48-2.99l.37-2.06c5.8,0,11.6-.19,16.84-.56,5.05-.56,9.35-.93,11.79-1.31-.94,5.05-1.68,17.78-1.68,39.11,0,17.78,.19,26.01,1.12,30.88,.94,4.3,3.74,6.92,8.8,6.92,11.23,0,19.65-7.3,23.58-16.65,1.5-3.74,1.68-6.74,1.68-10.48v-22.83c0-10.29-.19-15.9-.56-19.65-.37-2.62-2.62-2.81-11.6-2.99l-.19-2.25Z" fill="#eee6d8"/><path d="M291.42,431.2c8.24-.37,10.1-.75,10.29-5.43,.37-5.8,.75-10.85,.75-21.52v-20.96c0-10.48-.19-18.34-.56-23.2-.19-2.62-1.31-2.99-9.92-2.99l.19-2.06c8.42,0,17.96-.93,26.2-2.81,.37,4.3,.75,11.04,.93,14.41,6.55-6.74,15.72-14.97,28.63-14.97,11.79,0,17.96,5.61,20.4,10.48,1.5,2.99,2.25,6.36,2.25,10.48v53.33c0,3.93,1.12,4.3,10.48,5.24l-.37,2.25c-5.05,0-11.98-.56-19.09-.56-8.05,0-14.59,.56-18.15,.56l.19-2.25c7.3-.37,9.17-1.5,9.35-4.86,.37-4.3,.94-12.16,.94-29.75,0-26.01-.19-28.07-1.87-31.06-2.06-4.68-5.99-7.11-12.16-7.11-8.8,0-15.16,4.49-18.9,11.6-1.5,2.81-1.87,4.68-1.87,8.61v26.2c0,9.17,.19,17.22,.56,21.52,.37,3.56,1.68,4.49,10.29,4.86l-.56,2.25c-4.12,0-13.1-.56-19.27-.56-7.48,0-14.03,.56-18.71,.56v-2.25Z" fill="#eee6d8"/><path d="M439.24,354.1l-.56,2.81-23.95,1.12c-.19,6.36-.56,15.9-.56,30.69-.19,17.78,0,27.88,.75,33.68,.75,5.8,4.12,8.05,8.61,8.05,8.98,0,13.85-7.67,15.72-17.4h.94l1.68,4.49c-3.93,11.41-13.47,17.59-25.45,17.59-7.86,0-13.47-2.43-16.47-6.36-1.87-2.62-2.81-5.8-2.81-11.41-.19-13.85,.56-42.1,.56-59.32l-12.16-1.12,.93-2.81h11.6v-21.71c7.11-2.25,13.84-5.61,16.84-7.86l.93,.19c-.37,5.43-.93,20.4-.93,29.38h24.32Z" fill="#eee6d8"/><path d="M443.54,305.45c9.92,0,20.96-1.31,28.25-2.43-.37,7.86-.93,21.14-.93,42.29v45.84c0,21.71,.19,30.32,.37,34.62,.37,4.49,2.06,5.05,10.67,5.43l-.37,2.25c-5.24,0-13.47-.56-19.65-.56-8.42,0-15.34,.56-18.9,.56v-2.25c8.42-.19,9.92-1.31,10.29-5.8,.19-3.56,.93-18.52,.93-36.67v-46.78c0-20.77-.19-26.2-.37-30.88-.37-2.99-1.5-3.56-10.67-3.56l.37-2.06Z" fill="#eee6d8"/><path d="M527.18,435.13c-14.03,0-23.39-4.49-29.38-12.91-4.49-6.17-7.3-16.47-7.3-27.13,0-23.2,12.35-43.41,38.17-43.41s30.87,21.9,30.87,30.13c0,3.37-.93,6.36-2.81,7.3-2.81,1.12-11.79,1.87-25.82,2.06h-22.08c-.56,11.04,2.06,21.15,5.43,27.32,4.12,7.11,9.92,10.85,19.09,10.85,13.66,0,19.65-7.3,24.14-19.27l2.06,1.12c-4.86,15.9-15.9,23.95-32.37,23.95Zm.56-80.65c-12.16,0-17.78,15.53-18.71,33.68h14.78c8.05,0,13.29-.56,16.09-1.12,2.43-.75,3.74-2.81,3.74-6.92,0-9.36-2.81-25.64-15.72-25.64h-.19Z" fill="#eee6d8"/><path d="M564.03,353.54c5.05,.19,11.79,.56,18.15,.56,7.11,0,15.16-.37,18.9-.56l.56,2.25-5.05,.75c-3.56,.37-3.93,1.12-2.99,4.3,5.42,16.28,17.22,45.28,20.96,55.01,5.43-15.53,12.91-40.6,16.28-53.14,1.12-4.68-.37-5.61-5.05-6.17l-6.55-.75,.56-2.25c3.37,0,9.73,.56,14.03,.56,4.86,0,10.85-.56,15.16-.56l-.56,2.25c-7.86,.37-9.36,1.5-12.91,9.92-5.24,13.47-21.33,59.69-29.38,83.64-6.17,19.09-11.41,30.69-22.64,30.69-7.3,0-11.04-5.24-11.04-10.48s3.74-8.42,7.49-8.42c2.81,0,4.49,1.87,5.05,3.74,1.31,3.74,2.24,5.8,5.24,5.8,5.61,0,11.79-19.84,16.28-33.5-1.68-1.31-3.74-4.68-4.86-7.86-9.73-25.45-21.15-55.76-26.39-66.43-2.43-5.05-3.74-5.99-7.11-6.55l-4.49-.56,.37-2.25Z" fill="#eee6d8"/></g><g><path d="M216.21,497.86c0-9.83,0-15.44-.26-20.29-.13-3.7-3.06-4.21-10.08-4.47l.13-1.53c2.68,0,9.82,.51,15.95,.51,4.34,0,12.38-.51,16.2-.51v1.53c-6.63,0-8.68,1.15-9.06,4.47-.38,3.45-.51,10.34-.51,18.5v13.53c3.32,.13,10.21,.13,17.48,.13s14.29,0,19.65-.13v-14.16c0-9.7-.13-14.8-.38-18.5-.26-2.81-3.19-3.7-9.83-3.83l.13-1.53c5.23,.13,12.25,.51,15.82,.51,5.61,0,14.42-.38,16.84-.51v1.53c-7.02,.13-9.57,1.02-9.7,4.47-.13,4.59-.51,10.85-.51,19.4v28.2c0,11.61,.26,19.27,.64,23.22,.26,3.06,2.68,3.83,9.57,4.21l-.26,1.53c-3.57-.13-11.1-.38-16.59-.38s-12.51,.13-15.95,.38v-1.53c6.76-.26,9.31-1.4,9.7-4.47,.13-2.94,.51-7.78,.51-21.44v-14.29c-4.85-.13-12.12-.25-19.52-.25s-14.29,.13-17.61,.25v13.91c0,10.59,.13,17.86,.51,21.82,.26,3.45,3.06,4.08,10.21,4.47v1.53c-3.95-.13-10.97-.38-17.74-.38-5.36,0-12.76,.26-16.08,.38v-1.53c7.02-.13,9.83-1.28,10.08-4.34,.26-3.19,.64-8.55,.64-22.07v-28.33Z" fill="#eee6d8"/><path d="M320.45,498.37c16.59,0,26.41,11.36,26.41,27.82,0,18.25-10.72,29.09-27.31,29.09-17.74,0-26.92-11.87-26.92-27.94s9.7-28.97,27.69-28.97h.13Zm-.77,1.92c-5.1,0-8.55,2.55-10.85,6.76-2.3,4.21-3.45,10.97-3.45,18.63s1.28,15.06,3.32,19.65c2.55,5.23,6.76,8.04,11.99,8.04,4.85,0,8.29-2.17,10.72-7.27,1.53-3.83,2.81-10.46,2.81-18.76s-1.28-15.44-3.32-19.52c-2.3-4.59-5.74-7.53-11.1-7.53h-.13Z" fill="#eee6d8"/><path d="M387.31,500.03c3.83,0,9.31-.13,12.89-.38,3.7-.26,6.13-.64,7.4-.77-.26,3.7-.51,10.21-.51,18.37v15.31c0,8.42,.13,13.65,.51,16.84,.38,2.3,1.02,2.68,7.78,2.55l-.38,1.53c-2.81,.13-6,.38-9.95,.77-3.83,.26-7.27,.77-9.57,1.15,.13-3.45-.13-9.19,.13-12.25-3.57,4.85-11.99,12.12-22.33,12.12-7.14,0-10.59-2.94-11.74-5.23-.89-1.66-1.4-4.21-1.4-7.02,0-7.4,.38-19.39,.38-29.86,0-5.49-.13-8.04-.25-9.83-.26-1.91-1.53-2.04-7.15-2.04l.25-1.4c3.96,0,7.91-.13,11.49-.38,3.45-.38,6.38-.64,8.04-.89-.64,3.45-1.15,12.12-1.15,26.67,0,12.12,.13,17.74,.77,21.05,.64,2.94,2.55,4.72,6,4.72,7.66,0,13.4-4.98,16.08-11.36,1.02-2.55,1.15-4.59,1.15-7.15v-15.57c0-7.02-.13-10.84-.38-13.4-.26-1.79-1.79-1.91-7.91-2.04l-.13-1.53Z" fill="#eee6d8"/><path d="M454.67,517.39c-.25-9.57-5.49-17.1-14.03-17.1-6,0-10.08,3.7-10.08,9.7,0,3.7,1.79,6.25,4.98,7.91,3.57,1.79,11.48,4.98,15.95,7.02,5.49,2.68,8.29,6.76,8.29,12.5,0,12.63-10.34,17.86-21.44,17.86-6,0-12.38-1.92-16.33-3.45,.13-3.06,.26-11.36-.13-18.12l1.4-.51c.26,2.68,.77,6.13,2.42,10.21,2.3,6.25,7.78,9.82,14.04,9.82,8.04,0,11.36-4.08,11.36-10.08,0-3.19-1.53-6-4.98-7.53-3.7-1.91-9.06-4.47-13.27-6.25-6.76-2.94-10.08-7.53-10.08-14.04,0-10.59,8.04-16.97,18.76-16.97,4.85,0,10.59,1.66,12.63,3.83l1.4-4.85,1.15,.51c-.77,7.27-.77,14.16-.64,18.88l-1.4,.64Z" fill="#eee6d8"/><path d="M492.44,555.28c-9.57,0-15.95-3.06-20.03-8.81-3.06-4.21-4.98-11.23-4.98-18.5,0-15.82,8.42-29.6,26.03-29.6s21.05,14.93,21.05,20.54c0,2.3-.64,4.34-1.91,4.98-1.91,.77-8.04,1.28-17.61,1.4h-15.06c-.38,7.53,1.4,14.42,3.7,18.63,2.81,4.85,6.76,7.4,13.02,7.4,9.31,0,13.4-4.98,16.46-13.14l1.4,.77c-3.32,10.84-10.84,16.33-22.07,16.33Zm.38-55c-8.29,0-12.12,10.59-12.76,22.97h10.08c5.49,0,9.06-.38,10.97-.77,1.66-.51,2.55-1.92,2.55-4.72,0-6.38-1.92-17.48-10.72-17.48h-.13Z" fill="#eee6d8"/></g></g><path d="M313.43,113.95c0-12.83,0-20.17-.33-26.5-.17-4.83-4-5.5-13.16-5.83l.17-2c3.5,0,12.83,.67,20.83,.67,5.67,0,16.16-.67,21.16-.67v2c-8.67,0-11.33,1.5-11.83,5.83-.5,4.5-.67,13.5-.67,24.16v17.67l30.32-9.29,31.15,9.29v-18.5c0-12.67-.16-19.33-.5-24.16-.33-3.67-4.17-4.83-12.83-5l.17-2c6.83,.17,16,.67,20.67,.67,7.33,0,18.83-.5,22-.67v2c-9.17,.17-12.5,1.33-12.67,5.83-.16,6-.67,14.17-.67,25.33v36.83c0,15.17,.33,25.17,.83,30.33,.33,4,3.5,5,12.5,5.5l-.33,2c-4.67-.17-14.5-.5-21.66-.5s-16.33,.17-20.83,.5v-2c8.83-.33,12.17-1.83,12.67-5.83,.17-3.83,.67-10.17,.67-28v-18.67l-30.99-9.79-30.49,9.79v18.17c0,13.83,.17,23.33,.67,28.5,.33,4.5,4,5.33,13.33,5.83v2c-5.16-.17-14.33-.5-23.17-.5-7,0-16.67,.33-21,.5v-2c9.17-.17,12.83-1.67,13.16-5.67,.33-4.17,.83-11.17,.83-28.83v-37Z" fill="#eee6d8"/><path d="M490.45,61.14c-17.11,0-31.03-13.92-31.03-31.03v-9.52h-198.84v9.52c0,17.11-13.92,31.03-31.03,31.03h-9.51V205.97h9.51c17.11,0,31.03,13.9,31.03,30.99v9.52h198.84v-9.52c0-17.09,13.92-30.99,31.03-30.99h9.51V61.14h-9.51Zm5.17,140.49h-5.17c-19.5,0-35.37,15.85-35.37,35.33v5.17h-190.16v-5.17c0-19.48-15.87-35.33-35.37-35.33h-5.17V65.48h5.17c19.5,0,35.37-15.87,35.37-35.37v-5.17h190.16v5.17c0,19.5,15.87,35.37,35.37,35.37h5.17V201.63Z" fill="#eee6d8"/><path d="M272.73,39.57c-3.66,16.81-16.91,30.05-33.72,33.72l-5.78,1.27v117.98l5.78,1.27c16.81,3.66,30.03,16.91,33.72,33.7l1.27,5.78h171.99l1.29-5.78c3.68-16.79,16.91-30.03,33.72-33.7l5.78-1.27V74.55l-5.78-1.27c-16.81-3.66-30.07-16.91-33.72-33.72l-1.29-5.78h-171.99l-1.27,5.78Zm165.38,1.98c4.88,18.97,21.91,33.91,40.9,38.8v106.38c-18.96,4.89-36,19.83-40.9,38.78h-156.21c-4.92-18.97-21.95-33.89-40.9-38.78V80.35c18.98-4.9,36.01-19.83,40.9-38.8h156.21Z" fill="#eee6d8"/></svg>