<?xml version="1.0" encoding="UTF-8"?><svg id="Layer_1" xmlns="http://www.w3.org/2000/svg" width="10in" height="5.06in" viewBox="0 0 720 364.04"><g><path d="M38.35,89.87c0-16.96,0-26.65-.44-35.02-.22-6.39-5.29-7.27-17.4-7.71l.22-2.64c4.63,0,16.96,.88,27.53,.88,7.49,0,21.37-.88,27.97-.88v2.64c-11.45,0-14.98,1.98-15.64,7.71-.66,5.95-.88,17.84-.88,31.94v23.35c5.73,.22,17.62,.22,30.17,.22s24.67,0,33.92-.22v-24.45c0-16.74-.22-25.55-.66-31.94-.44-4.85-5.51-6.39-16.96-6.61l.22-2.64c9.03,.22,21.14,.88,27.31,.88,9.69,0,24.89-.66,29.07-.88v2.64c-12.11,.22-16.52,1.76-16.74,7.71-.22,7.93-.88,18.72-.88,33.48v48.67c0,20.04,.44,33.26,1.1,40.08,.44,5.29,4.63,6.61,16.52,7.27l-.44,2.64c-6.17-.22-19.16-.66-28.63-.66s-21.58,.22-27.53,.66v-2.64c11.67-.44,16.08-2.42,16.74-7.71,.22-5.07,.88-13.44,.88-37v-24.67c-8.37-.22-20.92-.44-33.7-.44s-24.67,.22-30.39,.44v24.01c0,18.28,.22,30.84,.88,37.66,.44,5.95,5.29,7.05,17.62,7.71v2.64c-6.83-.22-18.94-.66-30.61-.66-9.25,0-22.02,.44-27.75,.66v-2.64c12.11-.22,16.96-2.2,17.4-7.49,.44-5.51,1.1-14.76,1.1-38.1v-48.9Z" fill="#2f1b1b"/><path d="M224.23,93.61c6.61,0,16.08-.22,22.25-.66,6.39-.44,10.57-1.1,12.78-1.32-.44,6.39-.88,17.62-.88,31.71v26.43c0,14.54,.22,23.57,.88,29.07,.66,3.96,1.76,4.62,13.43,4.4l-.66,2.64c-4.85,.22-10.35,.66-17.18,1.32-6.61,.44-12.55,1.32-16.52,1.98,.22-5.95-.22-15.86,.22-21.14-6.17,8.37-20.7,20.92-38.54,20.92-12.33,0-18.28-5.07-20.26-9.03-1.54-2.86-2.42-7.27-2.42-12.11,0-12.78,.66-33.48,.66-51.54,0-9.47-.22-13.88-.44-16.96-.44-3.3-2.64-3.52-12.33-3.52l.44-2.42c6.83,0,13.66-.22,19.82-.66,5.95-.66,11.01-1.1,13.88-1.54-1.1,5.95-1.98,20.92-1.98,46.03,0,20.92,.22,30.61,1.32,36.34,1.1,5.07,4.41,8.15,10.35,8.15,13.21,0,23.12-8.59,27.75-19.6,1.76-4.41,1.98-7.93,1.98-12.33v-26.87c0-12.11-.22-18.72-.66-23.12-.44-3.08-3.08-3.3-13.66-3.52l-.22-2.64Z" fill="#2f1b1b"/><path d="M279.28,184.35c9.69-.44,11.89-.88,12.11-6.39,.44-6.83,.88-12.78,.88-25.33v-24.67c0-12.33-.22-21.58-.66-27.31-.22-3.08-1.54-3.52-11.67-3.52l.22-2.42c9.91,0,21.14-1.1,30.84-3.3,.44,5.07,.88,13,1.1,16.96,7.71-7.93,18.5-17.62,33.7-17.62,13.88,0,21.15,6.61,24.01,12.33,1.76,3.52,2.64,7.49,2.64,12.33v62.77c0,4.63,1.32,5.06,12.33,6.17l-.44,2.64c-5.95,0-14.1-.66-22.47-.66-9.47,0-17.18,.66-21.36,.66l.22-2.64c8.59-.44,10.79-1.76,11.01-5.73,.44-5.07,1.1-14.32,1.1-35.02,0-30.61-.22-33.04-2.2-36.56-2.42-5.51-7.05-8.37-14.32-8.37-10.35,0-17.84,5.29-22.25,13.66-1.76,3.3-2.2,5.51-2.2,10.13v30.83c0,10.79,.22,20.26,.66,25.33,.44,4.18,1.98,5.28,12.11,5.73l-.66,2.64c-4.84,0-15.42-.66-22.69-.66-8.81,0-16.52,.66-22.02,.66v-2.64Z" fill="#2f1b1b"/><path d="M453.27,93.61l-.66,3.3-28.19,1.32c-.22,7.49-.66,18.72-.66,36.12-.22,20.92,0,32.81,.88,39.64,.88,6.83,4.84,9.47,10.13,9.47,10.57,0,16.3-9.03,18.5-20.48h1.1l1.98,5.29c-4.63,13.43-15.86,20.7-29.95,20.7-9.25,0-15.86-2.86-19.38-7.49-2.2-3.08-3.3-6.83-3.3-13.43-.22-16.3,.66-49.55,.66-69.82l-14.32-1.32,1.1-3.3h13.66v-25.55c8.37-2.64,16.3-6.61,19.82-9.25l1.1,.22c-.44,6.39-1.1,24.01-1.1,34.58h28.63Z" fill="#2f1b1b"/><path d="M458.33,36.34c11.67,0,24.67-1.54,33.26-2.86-.44,9.25-1.1,24.89-1.1,49.78v53.96c0,25.55,.22,35.68,.44,40.75,.44,5.28,2.42,5.95,12.55,6.39l-.44,2.64c-6.17,0-15.86-.66-23.12-.66-9.91,0-18.06,.66-22.25,.66v-2.64c9.91-.22,11.67-1.54,12.11-6.83,.22-4.18,1.1-21.8,1.1-43.17v-55.06c0-24.45-.22-30.84-.44-36.34-.44-3.52-1.76-4.18-12.55-4.18l.44-2.42Z" fill="#2f1b1b"/><path d="M556.77,188.98c-16.52,0-27.53-5.29-34.58-15.2-5.29-7.27-8.59-19.38-8.59-31.94,0-27.31,14.54-51.1,44.93-51.1s36.34,25.77,36.34,35.46c0,3.96-1.1,7.49-3.3,8.59-3.3,1.32-13.88,2.2-30.39,2.42h-25.99c-.66,13,2.42,24.89,6.39,32.16,4.85,8.37,11.67,12.78,22.47,12.78,16.08,0,23.12-8.59,28.41-22.69l2.42,1.32c-5.73,18.72-18.72,28.19-38.1,28.19Zm.66-94.93c-14.32,0-20.92,18.28-22.02,39.64h17.4c9.47,0,15.64-.66,18.94-1.32,2.86-.88,4.41-3.31,4.41-8.15,0-11.01-3.31-30.17-18.5-30.17h-.22Z" fill="#2f1b1b"/><path d="M600.15,92.95c5.95,.22,13.88,.66,21.36,.66,8.37,0,17.84-.44,22.25-.66l.66,2.64-5.95,.88c-4.18,.44-4.63,1.32-3.52,5.06,6.38,19.16,20.26,53.3,24.67,64.75,6.39-18.28,15.2-47.79,19.16-62.55,1.32-5.51-.44-6.61-5.95-7.27l-7.71-.88,.66-2.64c3.96,0,11.45,.66,16.52,.66,5.73,0,12.78-.66,17.84-.66l-.66,2.64c-9.25,.44-11.01,1.76-15.2,11.67-6.17,15.86-25.11,70.26-34.58,98.45-7.27,22.47-13.43,36.12-26.65,36.12-8.59,0-13-6.17-13-12.33s4.41-9.91,8.81-9.91c3.3,0,5.28,2.2,5.95,4.41,1.54,4.41,2.64,6.83,6.17,6.83,6.61,0,13.88-23.35,19.16-39.43-1.98-1.54-4.41-5.51-5.73-9.25-11.45-29.95-24.89-65.63-31.06-78.19-2.86-5.95-4.4-7.05-8.37-7.71l-5.29-.66,.44-2.64Z" fill="#2f1b1b"/></g><g><path d="M190.75,262.82c0-11.57,0-18.17-.3-23.88-.15-4.36-3.6-4.96-11.86-5.26l.15-1.8c3.15,0,11.56,.6,18.77,.6,5.11,0,14.57-.6,19.07-.6v1.8c-7.81,0-10.21,1.35-10.66,5.26-.45,4.06-.6,12.17-.6,21.78v15.92c3.9,.15,12.02,.15,20.58,.15s16.82,0,23.13-.15v-16.67c0-11.41-.15-17.42-.45-21.78-.3-3.3-3.75-4.36-11.57-4.51l.15-1.8c6.16,.15,14.42,.6,18.62,.6,6.61,0,16.97-.45,19.82-.6v1.8c-8.26,.15-11.26,1.2-11.41,5.26-.15,5.41-.6,12.77-.6,22.83v33.19c0,13.67,.3,22.68,.75,27.33,.3,3.61,3.15,4.51,11.26,4.96l-.3,1.8c-4.21-.15-13.07-.45-19.52-.45s-14.72,.15-18.77,.45v-1.8c7.96-.3,10.96-1.65,11.41-5.26,.15-3.46,.6-9.16,.6-25.23v-16.82c-5.71-.15-14.27-.3-22.98-.3s-16.82,.15-20.73,.3v16.37c0,12.47,.15,21.03,.6,25.68,.3,4.06,3.6,4.81,12.01,5.26v1.8c-4.65-.15-12.92-.45-20.88-.45-6.31,0-15.02,.3-18.92,.45v-1.8c8.26-.15,11.57-1.5,11.86-5.11,.3-3.76,.75-10.06,.75-25.98v-33.34Z" fill="#2f1b1b"/><path d="M313.45,263.42c19.52,0,31.09,13.37,31.09,32.74,0,21.48-12.62,34.24-32.14,34.24-20.88,0-31.69-13.97-31.69-32.89s11.41-34.09,32.59-34.09h.15Zm-.9,2.25c-6.01,0-10.06,3-12.77,7.96-2.7,4.96-4.06,12.92-4.06,21.93s1.5,17.72,3.91,23.13c3,6.16,7.96,9.46,14.12,9.46,5.71,0,9.76-2.55,12.62-8.56,1.8-4.5,3.3-12.32,3.3-22.08s-1.5-18.17-3.9-22.98c-2.7-5.41-6.76-8.86-13.07-8.86h-.15Z" fill="#2f1b1b"/><path d="M392.14,265.38c4.51,0,10.96-.15,15.17-.45,4.36-.3,7.21-.75,8.71-.9-.3,4.36-.6,12.01-.6,21.63v18.02c0,9.91,.15,16.07,.6,19.83,.45,2.7,1.2,3.15,9.16,3l-.45,1.8c-3.3,.15-7.06,.45-11.72,.9-4.51,.3-8.56,.9-11.26,1.35,.15-4.06-.15-10.81,.15-14.42-4.21,5.71-14.12,14.27-26.28,14.27-8.41,0-12.46-3.46-13.82-6.16-1.05-1.95-1.65-4.96-1.65-8.26,0-8.71,.45-22.83,.45-35.14,0-6.46-.15-9.46-.3-11.57-.3-2.25-1.8-2.4-8.41-2.4l.3-1.65c4.66,0,9.31-.15,13.52-.45,4.06-.45,7.51-.75,9.46-1.05-.75,4.06-1.35,14.27-1.35,31.39,0,14.27,.15,20.88,.9,24.78,.75,3.46,3,5.56,7.06,5.56,9.01,0,15.77-5.86,18.92-13.37,1.2-3,1.35-5.41,1.35-8.41v-18.32c0-8.26-.15-12.76-.45-15.77-.3-2.1-2.1-2.25-9.31-2.4l-.15-1.8Z" fill="#2f1b1b"/><path d="M471.43,285.8c-.3-11.26-6.46-20.12-16.52-20.12-7.06,0-11.87,4.36-11.87,11.41,0,4.36,2.1,7.36,5.86,9.31,4.21,2.1,13.52,5.86,18.77,8.26,6.46,3.15,9.76,7.96,9.76,14.72,0,14.87-12.17,21.03-25.23,21.03-7.06,0-14.57-2.25-19.22-4.06,.15-3.61,.3-13.37-.15-21.33l1.65-.6c.3,3.15,.9,7.21,2.85,12.02,2.7,7.36,9.16,11.56,16.52,11.56,9.46,0,13.37-4.81,13.37-11.86,0-3.75-1.8-7.06-5.86-8.86-4.36-2.25-10.66-5.26-15.62-7.36-7.96-3.46-11.86-8.86-11.86-16.52,0-12.47,9.46-19.98,22.08-19.98,5.71,0,12.47,1.95,14.87,4.51l1.65-5.71,1.35,.6c-.9,8.56-.9,16.67-.75,22.23l-1.65,.75Z" fill="#2f1b1b"/><path d="M515.88,330.41c-11.26,0-18.77-3.61-23.58-10.36-3.61-4.96-5.86-13.22-5.86-21.78,0-18.62,9.91-34.84,30.64-34.84s24.78,17.57,24.78,24.18c0,2.7-.75,5.11-2.25,5.86-2.25,.9-9.46,1.5-20.73,1.65h-17.72c-.45,8.86,1.65,16.97,4.36,21.93,3.3,5.71,7.96,8.71,15.32,8.71,10.96,0,15.77-5.86,19.37-15.47l1.65,.9c-3.9,12.76-12.76,19.22-25.98,19.22Zm.45-64.73c-9.76,0-14.27,12.47-15.02,27.03h11.86c6.46,0,10.66-.45,12.92-.9,1.95-.6,3-2.25,3-5.56,0-7.51-2.25-20.58-12.62-20.58h-.15Z" fill="#2f1b1b"/></g></svg>